<svg width="22" height="122" viewBox="0 0 22 122" fill="none" xmlns="http://www.w3.org/2000/svg">
<path d="M22 121.793H0.969999L0.969999 116.123H22V121.793ZM0.939999 86.3008H22V90.6208L10 103.521H22V109.191H0.939999L0.939999 104.871L13 91.9708H0.939999L0.939999 86.3008ZM1.03 57.2519H6.34L6.34 66.7919H22V72.4919H6.34L6.34 80.8919H1.03L1.03 57.2519ZM6.67 46.2075H8.71V34.4775H14.02V46.2075H16.33L16.33 30.3675H22L22 51.8775H0.999999L0.999999 30.3675H6.67L6.67 46.2075ZM22 0.607927V7.92793L13.27 15.0679L6.73 10.0879L6.73 18.4879H22V24.1579H1.03L1.03 1.83793H5.2L13.12 7.89793L22 0.607927Z" fill="white"/>
</svg>
