<svg width="22" height="124" viewBox="0 0 22 124" fill="none" xmlns="http://www.w3.org/2000/svg">
<path d="M22 123.756H0.969999L0.969999 118.086H22V123.756ZM0.939999 88.2637H22V92.5837L10 105.484H22V111.154H0.939999L0.939999 106.834L13 93.9337H0.939999L0.939999 88.2637ZM1.03 59.2148H6.34L6.34 68.7548H22V74.4548H6.34L6.34 82.8548H1.03L1.03 59.2148ZM22 30.2904V37.6104L13.27 44.7504L6.73 39.7704L6.73 48.1704H22V53.8404H1.03L1.03 31.5204H5.2L13.12 37.5804L22 30.2904ZM17.89 0.796131H22V26.5361H17.89L0.939999 15.3761V11.9561L17.89 0.796131ZM16.27 8.65613L8.68 13.6961L16.27 18.6761V8.65613Z" fill="white"/>
</svg>
